<?xml version="1.0"?>
<svg xmlns="http://www.w3.org/2000/svg" xmlns:xlink="http://www.w3.org/1999/xlink" xmlns:svgjs="http://svgjs.com/svgjs" version="1.1" width="512" height="512" x="0" y="0" viewBox="0 0 489.658 489.658" style="enable-background:new 0 0 512 512" xml:space="preserve" class=""><g>
<g xmlns="http://www.w3.org/2000/svg">
	<path d="M194.829,244.829c0,27.57,22.43,50,50,50s50-22.43,50-50s-22.43-50-50-50S194.829,217.259,194.829,244.829z" fill="#cccccc" data-original="#000000" style="" class=""/>
	<path d="M485.313,237.318c-23.974-41.44-58.446-76.197-99.691-100.511c-42.473-25.038-91.117-38.28-140.681-38.3   c-0.037,0-0.074-0.001-0.112-0.001s-0.074,0.001-0.112,0.001c-49.564,0.02-98.208,13.262-140.681,38.3   c-41.245,24.314-75.718,59.07-99.691,100.511L0,244.829l4.345,7.511c23.974,41.44,58.446,76.197,99.691,100.511   c42.473,25.038,91.117,38.28,140.681,38.3c0.037,0,0.074,0.001,0.112,0.001s0.074-0.001,0.112-0.001   c49.564-0.02,98.208-13.262,140.681-38.3c41.245-24.314,75.718-59.07,99.691-100.511l4.345-7.511L485.313,237.318z    M361.152,244.829c0,64.105-52.125,116.264-116.217,116.322c-0.036,0-0.071,0.001-0.107,0.001s-0.071-0.001-0.107-0.001   c-64.092-0.058-116.217-52.217-116.217-116.322s52.125-116.264,116.217-116.322c0.036,0,0.071-0.001,0.107-0.001   s0.071,0.001,0.107,0.001C309.027,128.565,361.152,180.724,361.152,244.829z M34.839,244.829   c22.94-36.587,54.809-66.03,91.791-86.144c-17.673,24.184-28.124,53.964-28.124,86.144s10.45,61.96,28.124,86.144   C89.648,310.859,57.779,281.416,34.839,244.829z M363.029,330.973c17.673-24.184,28.124-53.964,28.124-86.144   s-10.45-61.96-28.124-86.144c36.981,20.114,68.85,49.557,91.791,86.144C431.879,281.416,400.01,310.859,363.029,330.973z" fill="#cccccc" data-original="#000000" style="" class=""/>
</g>
<g xmlns="http://www.w3.org/2000/svg">
</g>
<g xmlns="http://www.w3.org/2000/svg">
</g>
<g xmlns="http://www.w3.org/2000/svg">
</g>
<g xmlns="http://www.w3.org/2000/svg">
</g>
<g xmlns="http://www.w3.org/2000/svg">
</g>
<g xmlns="http://www.w3.org/2000/svg">
</g>
<g xmlns="http://www.w3.org/2000/svg">
</g>
<g xmlns="http://www.w3.org/2000/svg">
</g>
<g xmlns="http://www.w3.org/2000/svg">
</g>
<g xmlns="http://www.w3.org/2000/svg">
</g>
<g xmlns="http://www.w3.org/2000/svg">
</g>
<g xmlns="http://www.w3.org/2000/svg">
</g>
<g xmlns="http://www.w3.org/2000/svg">
</g>
<g xmlns="http://www.w3.org/2000/svg">
</g>
<g xmlns="http://www.w3.org/2000/svg">
</g>
</g></svg>
